<svg xmlns="http://www.w3.org/2000/svg" width="221" height="197" fill="none" viewBox="0 0 221 197">
  <path fill="#B7C3F3" d="M75.586 165.279c26.247 24.398 65.799 21.798 88.263-14.116l32.134-61.2c24.11-53.84-16.137-88.914-58.191-80.858L56.04 22.178C4.945 30.35-6.958 82.544 25.968 117.153l49.618 48.127Z" />
  <path fill="#4F6272" d="M67.034 156.134C88 183 125.5 186.5 151.966 156.134l39.333-52.672C222 56.5 189.5 17.5 148.833 18.75H70.167C21 18.75 2 66 27.7 103.462l39.333 52.672Z" />
  <circle cx="79" cy="88" r="10" fill="#fff" />
  <circle cx="110" cy="88" r="10" fill="#fff" />
  <circle cx="141" cy="88" r="10" fill="#fff" />
</svg>